<svg xmlns="http://www.w3.org/2000/svg" xmlns:xlink="http://www.w3.org/1999/xlink" version="1.1" x="0px" y="0px" viewBox="19 10.5 62.2 78.5" style="enable-background:new 0 0 100 100;" xml:space="preserve"><g><path fill="#fff" d="M37.1,72.2c-5.7,1.2-10.7,0.1-9.3,6.7c1.4,6.6,7.2,11,12.9,9.8S50,81,48.6,74.4C47.2,67.8,42.9,70.9,37.1,72.2z"/><path fill="#fff" d="M36.6,69.3c0.4-0.1,0.7-0.2,1.1-0.3c1.9-0.6,3.7-1.3,5.2-2.6c1.6-1.4,2.5-3.5,2.9-5.6c1-5.2,0.3-11-1.4-15.9   c-1.4-4-3.5-7.7-6.6-10.6c-2.4-2.3-5.7-4.2-9.1-3.6c-3.5,0.6-6.1,3.8-7.6,7.1c-2.2,5-2.5,10.6-1.4,15.9c0.8,3.8,2.5,7.5,4.4,10.9   c1.2,2,2.8,3.9,5,4.8C31.6,70.4,34.2,70,36.6,69.3z"/><path fill="#fff" d="M65.1,52.7c-5.7-0.4-10.5-4-11.6,2.7s2.9,12.8,8.7,13.7C68,70,73.6,65.3,74.6,58.6C75.6,51.9,70.8,54,65.1,52.7z"/><path fill="#fff" d="M71.1,10.7c-5.4-0.8-9.2,3.1-11.7,7.3c-2.7,4.4-4.2,9.5-4.6,14.7c-0.2,2.7,0,5.4,0.5,8.1c0.5,2.3,0.9,4.7,2.9,6.3   c1.3,1,2.9,1.5,4.5,1.9c2.3,0.6,4.6,0.8,7,0.8c2.9,0,4.7-1.1,6.3-3.5c3-4.4,4.7-9.5,5.1-14.8c0.3-4.9-0.5-10.5-2.7-15   c-0.8-1.5-1.8-3-3.1-4.1C74,11.5,72.7,11,71.1,10.7z"/></g></svg>
