<svg xmlns:dc="http://purl.org/dc/elements/1.1/" xmlns:cc="http://creativecommons.org/ns#" xmlns:rdf="http://www.w3.org/1999/02/22-rdf-syntax-ns#" xmlns:svg="http://www.w3.org/2000/svg" xmlns="http://www.w3.org/2000/svg" xmlns:sodipodi="http://sodipodi.sourceforge.net/DTD/sodipodi-0.dtd" xmlns:inkscape="http://www.inkscape.org/namespaces/inkscape" version="1.1" x="0px" y="0px" viewBox="10 10 80 80"><g transform="translate(0,-952.36218)"><path style="color:#000000;enable-background:accumulate;" d="m 50,962.36219 c -22.09128,0 -40,17.9087 -40,40.00001 0,22.0913 17.90872,40 40,40 22.0913,0 40,-17.9087 40,-40 0,-22.09131 -17.9087,-40.00001 -40,-40.00001 z m 0,10 c 1.1046,0 2,0.8954 2,2 l 0,26.84381 21.5312,12.4374 c 0.9567,0.5524 1.2711,1.7622 0.7188,2.7188 -0.5523,0.9566 -1.7621,1.271 -2.7188,0.7187 -7.5054,-4.3308 -15.0411,-8.6798 -22.5312,-12.9999 -0.5969,-0.3461 -1,-0.9792 -1,-1.7188 l 0,-28.00001 c 0,-1.1046 0.8954,-2 2,-2 z" fill="#fff" stroke="none" marker="none" visibility="visible" display="inline" overflow="visible"/></g></svg>
