<svg xmlns:dc="http://purl.org/dc/elements/1.1/" xmlns:cc="http://creativecommons.org/ns#" xmlns:rdf="http://www.w3.org/1999/02/22-rdf-syntax-ns#" xmlns:svg="http://www.w3.org/2000/svg" xmlns="http://www.w3.org/2000/svg" xmlns:sodipodi="http://sodipodi.sourceforge.net/DTD/sodipodi-0.dtd" xmlns:inkscape="http://www.inkscape.org/namespaces/inkscape" version="1.1" x="0px" y="0px" viewBox="5 5 90 90"><g transform="translate(0,-952.36218)"><path style="text-indent:0;text-transform:none;direction:ltr;block-progression:tb;baseline-shift:baseline;color:#000000;enable-background:accumulate;" d="m 50,959.36219 c -23.7126,0 -43,19.2874 -43,43.00001 0,23.7126 19.2874,43 43,43 23.7126,0 43,-19.2874 43,-43 0,-23.71261 -19.2874,-43.00001 -43,-43.00001 z m 0,6 c 20.47,0 37,16.53 37,37.00001 0,20.47 -16.53,37 -37,37 -20.4699,0 -37,-16.53 -37,-37 0,-20.47001 16.5301,-37.00001 37,-37.00001 z m 0,6 c -1.6568,0 -3,1.3432 -3,3 l 0,28.00001 c 0,1.1095 0.6046,2.0747 1.5,2.5938 l 22.5312,12.9999 c 1.4348,0.8285 3.2653,0.3412 4.0938,-1.0937 0.8284,-1.4348 0.3412,-3.2654 -1.0938,-4.0938 L 53,1000.6435 53,974.36219 c 0,-1.6568 -1.3431,-3 -3,-3 z" fill="#fff" fill-opacity="1" stroke="none" marker="none" visibility="visible" display="inline" overflow="visible"/></g></svg>
